<svg width="256" height="256" viewBox="0 0 256 256" fill="none" xmlns="http://www.w3.org/2000/svg">
<g clip-path="url(#clip0_266_195)">
<rect width="256" height="256" fill="white"/>
<path d="M190.571 170.499V174.918H184.573V193.139H179.058V174.918H173.06V170.499H190.571Z" fill="black"/>
<path d="M164.793 193.139L160.085 184.592H158.762V193.139H153.248V170.499H162.503C164.288 170.499 165.803 170.811 167.05 171.435C168.319 172.058 169.265 172.918 169.888 174.015C170.512 175.09 170.824 176.294 170.824 177.627C170.824 179.132 170.394 180.475 169.534 181.658C168.695 182.84 167.448 183.679 165.793 184.173L171.017 193.139H164.793ZM158.762 180.69H162.181C163.191 180.69 163.944 180.443 164.438 179.949C164.954 179.454 165.212 178.755 165.212 177.852C165.212 176.992 164.954 176.315 164.438 175.821C163.944 175.326 163.191 175.079 162.181 175.079H158.762V180.69Z" fill="black"/>
<path d="M138.602 193.364C136.474 193.364 134.517 192.87 132.733 191.881C130.97 190.892 129.562 189.516 128.508 187.753C127.476 185.968 126.96 183.969 126.96 181.754C126.96 179.54 127.476 177.551 128.508 175.788C129.562 174.025 130.97 172.649 132.733 171.66C134.517 170.671 136.474 170.177 138.602 170.177C140.731 170.177 142.676 170.671 144.439 171.66C146.224 172.649 147.621 174.025 148.632 175.788C149.664 177.551 150.18 179.54 150.18 181.754C150.18 183.969 149.664 185.968 148.632 187.753C147.6 189.516 146.202 190.892 144.439 191.881C142.676 192.87 140.731 193.364 138.602 193.364ZM138.602 188.333C140.408 188.333 141.849 187.731 142.924 186.527C144.02 185.323 144.568 183.732 144.568 181.754C144.568 179.755 144.02 178.164 142.924 176.982C141.849 175.778 140.408 175.176 138.602 175.176C136.775 175.176 135.313 175.767 134.216 176.949C133.141 178.132 132.604 179.734 132.604 181.754C132.604 183.754 133.141 185.356 134.216 186.56C135.313 187.742 136.775 188.333 138.602 188.333Z" fill="black"/>
<path d="M125.024 177.788C125.024 179.099 124.723 180.303 124.121 181.4C123.519 182.475 122.595 183.345 121.348 184.012C120.101 184.678 118.553 185.012 116.704 185.012H113.286V193.139H107.771V170.499H116.704C118.51 170.499 120.036 170.811 121.283 171.435C122.53 172.058 123.466 172.918 124.089 174.015C124.713 175.111 125.024 176.369 125.024 177.788ZM116.285 180.626C117.338 180.626 118.123 180.379 118.639 179.884C119.155 179.39 119.413 178.691 119.413 177.788C119.413 176.885 119.155 176.186 118.639 175.692C118.123 175.197 117.338 174.95 116.285 174.95H113.286V180.626H116.285Z" fill="black"/>
<path d="M103.805 170.499V193.139H98.2905V179.562L93.2273 193.139H88.7769L83.6815 179.529V193.139H78.1668V170.499H84.6812L91.0344 186.173L97.323 170.499H103.805Z" fill="black"/>
<path d="M74.1704 170.499V193.139H68.6558V170.499H74.1704Z" fill="black"/>
<path d="M176.745 160.215H183.969V164.472H171.231V141.833H176.745V160.215Z" fill="black"/>
<path d="M159.298 146.251V150.831H166.683V155.088H159.298V160.054H167.65V164.472H153.783V141.833H167.65V146.251H159.298Z" fill="black"/>
<path d="M138.833 141.833C141.22 141.833 143.305 142.306 145.09 143.252C146.874 144.198 148.25 145.531 149.218 147.251C150.207 148.95 150.701 150.917 150.701 153.153C150.701 155.367 150.207 157.334 149.218 159.054C148.25 160.774 146.864 162.107 145.058 163.053C143.273 163.999 141.198 164.472 138.833 164.472H130.352V141.833H138.833ZM138.479 159.699C140.564 159.699 142.187 159.13 143.348 157.99C144.509 156.851 145.09 155.238 145.09 153.153C145.09 151.067 144.509 149.444 143.348 148.283C142.187 147.122 140.564 146.542 138.479 146.542H135.866V159.699H138.479Z" fill="black"/>
<path d="M115.706 164.698C113.578 164.698 111.621 164.204 109.837 163.215C108.074 162.226 106.666 160.85 105.612 159.087C104.58 157.302 104.064 155.303 104.064 153.088C104.064 150.874 104.58 148.885 105.612 147.122C106.666 145.359 108.074 143.983 109.837 142.994C111.621 142.005 113.578 141.511 115.706 141.511C117.835 141.511 119.78 142.005 121.543 142.994C123.328 143.983 124.725 145.359 125.736 147.122C126.768 148.885 127.284 150.874 127.284 153.088C127.284 155.303 126.768 157.302 125.736 159.087C124.704 160.85 123.306 162.226 121.543 163.215C119.78 164.204 117.835 164.698 115.706 164.698ZM115.706 159.667C117.512 159.667 118.953 159.065 120.028 157.861C121.124 156.657 121.672 155.066 121.672 153.088C121.672 151.089 121.124 149.498 120.028 148.315C118.953 147.111 117.512 146.509 115.706 146.509C113.879 146.509 112.417 147.101 111.32 148.283C110.245 149.466 109.708 151.067 109.708 153.088C109.708 155.088 110.245 156.689 111.32 157.893C112.417 159.076 113.879 159.667 115.706 159.667Z" fill="black"/>
<path d="M101.034 141.833V164.472H95.5191V150.895L90.4559 164.472H86.0055L80.9101 150.863V164.472H75.3954V141.833H81.9098L88.2629 157.506L94.5516 141.833H101.034Z" fill="black"/>
<path fill-rule="evenodd" clip-rule="evenodd" d="M105.183 212.182L123.596 244.073L130.592 231.956L137.587 244.073L156 212.182H142.008L130.592 231.956L119.175 212.182H105.183Z" fill="black"/>
<path d="M130.454 221.304L120.595 204.226L140.314 204.226L130.454 221.304Z" fill="black"/>
<path d="M187.427 43.5789C187.611 43.5093 187.78 43.404 187.924 43.2688C188.068 43.1337 188.184 42.9715 188.265 42.7914C188.346 42.6113 188.392 42.4169 188.398 42.2193C188.404 42.0217 188.372 41.8248 188.302 41.6398C183.088 27.7891 169.198 19.8664 155.833 22.3232L152.522 15.8196C152.354 15.4915 152.073 15.2364 151.731 15.1026C151.388 14.9689 151.009 14.9658 150.665 15.0939L145.877 16.9035C145.532 17.0355 145.248 17.29 145.078 17.6185C144.908 17.947 144.865 18.3267 144.956 18.6854L146.748 25.7622C140.88 29.2983 136.647 34.8982 134.558 41.3579L107.433 58.3588C105.96 57.5086 104.312 57.0095 102.616 56.9002C100.92 56.7909 99.2217 57.0742 97.6524 57.7283C96.083 58.3823 94.6845 59.3896 93.5651 60.6723C92.4457 61.955 91.6353 63.4787 91.1966 65.1257C90.7578 66.7726 90.7025 68.4987 91.0348 70.1706C91.3671 71.8424 92.0782 73.4152 93.1131 74.7674C94.148 76.1196 95.4791 77.215 97.0033 77.9689C98.5275 78.7228 100.204 79.115 101.904 79.1153C102.159 79.1153 102.415 79.1037 102.669 79.0852L118.262 106.967C116.948 108.003 115.85 109.288 115.032 110.75C114.213 112.212 113.69 113.821 113.493 115.486H88.3195C85.5835 115.489 82.9605 116.581 81.0259 118.521C79.0913 120.462 78.003 123.093 78 125.838V128.493C78 128.892 78.1579 129.275 78.4392 129.558C78.7204 129.84 79.1019 129.999 79.4999 130H172.739C172.936 130 173.131 129.961 173.314 129.885C173.496 129.809 173.661 129.698 173.8 129.559C173.94 129.419 174.05 129.252 174.125 129.07C174.201 128.887 174.239 128.691 174.239 128.493V125.838C174.236 123.093 173.148 120.462 171.213 118.521C169.278 116.581 166.655 115.489 163.919 115.486H138.749C138.408 112.651 137.132 110.012 135.123 107.99C133.113 105.968 130.487 104.678 127.662 104.328L110.94 74.4282C112.639 72.042 113.323 69.0767 112.843 66.1843L133.212 53.4221C133.463 56.2835 134.103 59.097 135.115 61.7839C135.223 62.0703 135.416 62.3169 135.667 62.4911C135.918 62.6653 136.215 62.7588 136.521 62.7592C136.702 62.7588 136.881 62.7251 137.051 62.6598L147.188 58.8256C149.007 62.4423 152.096 65.2561 155.86 66.7253C159.623 68.1946 163.795 68.2154 167.573 66.7837C171.351 65.3521 174.467 62.5692 176.323 58.9709C178.178 55.3725 178.64 51.2129 177.621 47.2929L187.427 43.5789ZM105.212 75.392C105.012 75.4821 104.807 75.5653 104.599 75.6393H104.581C104.15 75.7903 103.706 75.9047 103.256 75.9813C102.81 76.0585 102.358 76.0972 101.906 76.0969C100.631 76.0976 99.3748 75.796 98.2387 75.2167C97.1025 74.6375 96.1189 73.797 95.3682 72.7638C94.6175 71.7306 94.121 70.5341 93.9191 69.2717C93.7172 68.0094 93.8157 66.7171 94.2065 65.5002C94.5973 64.2833 95.2694 63.1764 96.1679 62.2696C97.0664 61.3629 98.1659 60.6822 99.3766 60.2829C100.587 59.8836 101.875 59.7771 103.135 59.9721C104.394 60.1671 105.59 60.658 106.624 61.4049C106.778 61.5189 106.932 61.6367 107.085 61.7585L107.187 61.8463C107.34 61.9757 107.485 62.1098 107.622 62.2484L107.677 62.3085C107.811 62.4449 107.938 62.5859 108.06 62.7292L108.127 62.8054C108.253 62.9603 108.373 63.1174 108.491 63.2792L108.56 63.3786C108.673 63.5404 108.79 63.7091 108.88 63.8801L108.933 63.9749C109.034 64.1528 109.131 64.3354 109.219 64.5203L109.246 64.5827C109.434 64.9814 109.588 65.395 109.707 65.8192C110.068 67.1201 110.098 68.4909 109.795 69.8065C109.492 71.1222 108.865 72.3408 107.972 73.3512C107.845 73.4945 107.713 73.6332 107.578 73.7672L107.479 73.862C107.334 74.0007 107.187 74.1324 107.035 74.2572C107.014 74.2757 106.993 74.2896 106.972 74.3057C106.811 74.4375 106.643 74.5623 106.472 74.6801L106.454 74.694C106.272 74.8165 106.088 74.9251 105.896 75.0407L105.85 75.0684C105.661 75.1724 105.468 75.2718 105.272 75.3619L105.212 75.392ZM163.919 118.49C165.86 118.492 167.721 119.266 169.093 120.643C170.466 122.02 171.237 123.886 171.239 125.833V126.989H81.0021V125.833C81.0039 123.887 81.7753 122.02 83.1472 120.644C84.519 119.267 86.3791 118.493 88.3195 118.49H163.919ZM125.517 107.258C125.717 107.247 125.918 107.237 126.121 107.237C126.323 107.237 126.468 107.237 126.639 107.254C128.864 107.376 130.979 108.26 132.632 109.758C134.286 111.257 135.377 113.278 135.724 115.486H116.518C116.74 114.078 117.266 112.736 118.059 111.554C118.852 110.371 119.893 109.377 121.109 108.64C121.25 108.557 121.393 108.474 121.536 108.398C121.603 108.361 121.669 108.328 121.734 108.296C121.854 108.234 121.964 108.176 122.096 108.12L122.255 108.046C122.423 107.975 122.596 107.905 122.768 107.843L122.916 107.79C123.089 107.73 123.261 107.672 123.436 107.621L123.476 107.61C123.669 107.554 123.865 107.508 124.061 107.464L124.178 107.441C124.574 107.36 124.974 107.304 125.376 107.272L125.517 107.258ZM124.243 104.367C123.971 104.406 123.701 104.459 123.434 104.517L123.273 104.554C123.043 104.605 122.833 104.663 122.616 104.725L122.455 104.771C122.202 104.847 121.953 104.93 121.709 105.021L121.529 105.093C121.344 105.164 121.162 105.241 120.985 105.324L120.833 105.386L105.737 78.4265C105.995 78.3318 106.249 78.2231 106.498 78.1076L106.571 78.0752C106.802 77.962 107.051 77.8441 107.283 77.7101L107.38 77.6546C107.597 77.5298 107.811 77.4004 108.016 77.2617L108.078 77.2224C108.283 77.0838 108.479 76.9381 108.675 76.7879C108.705 76.7625 108.739 76.7417 108.772 76.7163L124.243 104.367ZM133.095 49.9415L111.917 63.2122V63.2006C111.806 62.9695 111.686 62.7384 111.557 62.5188C111.53 62.4657 111.5 62.4148 111.47 62.364C111.345 62.1514 111.214 61.941 111.076 61.7377L110.979 61.6013C110.859 61.4303 110.735 61.2639 110.606 61.1021L110.486 60.9449C110.332 60.7662 110.179 60.5929 110.025 60.4249L109.944 60.3325L133.523 45.5596C133.275 47.0095 133.132 48.4755 133.095 49.9461V49.9415ZM150.46 18.3873L152.833 23.0535L152.727 23.0882L152.132 23.28L151.923 23.3517C151.66 23.4395 151.4 23.5342 151.139 23.6313H151.123C150.867 23.7284 150.616 23.8301 150.365 23.9341L150.165 24.0196C149.971 24.0997 149.78 24.1829 149.591 24.2692L149.487 24.3154L148.193 19.2309L150.46 18.3873ZM161.809 64.8947C159.377 64.9054 156.989 64.245 154.906 62.9859C152.823 61.7268 151.126 59.9174 149.999 57.7555L174.794 48.363C175.265 50.3326 175.285 52.3837 174.852 54.3622C174.42 56.3407 173.546 58.1951 172.296 59.7861C171.046 61.3771 169.454 62.6633 167.637 63.5481C165.821 64.4329 163.828 64.8933 161.809 64.8947ZM175.234 44.9795L147.439 55.5068L137.431 59.2994C133.399 46.6296 138.753 33.1071 149.84 27.4909L149.914 27.4517C150.238 27.2899 150.57 27.135 150.902 26.9894L151.169 26.8716C151.508 26.7259 151.86 26.5827 152.199 26.4509C152.51 26.3331 152.821 26.2198 153.135 26.1204L153.429 26.021C153.66 25.9494 153.89 25.8824 154.121 25.8154L154.418 25.7322C156.471 25.1724 158.589 24.8887 160.717 24.8886C170.783 24.8886 180.494 31.1634 184.927 41.2978L175.237 44.9702L175.234 44.9795ZM145.068 82.1313L151.206 69.9353L153.89 71.292L147.75 83.488L145.068 82.1313ZM170.131 71.0609L174.488 84.3454L171.631 85.286L167.274 72.0015L170.131 71.0609ZM194 65.9763L192.648 68.6642L180.172 62.3455L181.524 59.6576L194 65.9763Z" fill="black"/>
</g>
<defs>
<clipPath id="clip0_266_195">
<rect width="256" height="256" fill="white"/>
</clipPath>
</defs>
</svg>
